HIERARCHY
ROOT RootJoint
{
    OFFSET   0.000000   0.000000   0.000000
    CHANNELS 6 Xposition Yposition Zposition Xrotation Yrotation Zrotation
    JOINT pelvis_lowerback
    {
        OFFSET   0.000000   0.093605   0.000000
        CHANNELS 3 Xrotation Yrotation Zrotation
        JOINT lowerback_torso
        {
            OFFSET   0.000000   0.100000   0.000000
            CHANNELS 3 Xrotation Yrotation Zrotation
            JOINT torso_head
            {
                OFFSET   0.000000   0.282350   0.000000
                CHANNELS 3 Xrotation Yrotation Zrotation
                End Site
                {
                    OFFSET   0.000000   0.192650   0.000000
                }
            }
            JOINT rTorso_Clavicle
            {
                OFFSET  -0.001000   0.157500   0.000000
                CHANNELS 3 Xrotation Yrotation Zrotation
                JOINT rShoulder
                {
                    OFFSET  -0.117647   0.000000   0.000000
                    CHANNELS 3 Xrotation Yrotation Zrotation
                    JOINT rElbow
                    {
                        OFFSET  -0.245000   0.000000   0.000000
                        CHANNELS 3 Xrotation Yrotation Zrotation
                        JOINT rWrist
                        {
                            OFFSET  -0.240000   0.000000   0.000000
                            CHANNELS 3 Xrotation Yrotation Zrotation
                            End Site
                            {
                                OFFSET  -0.116353  -0.002500   0.000000
                            }
                        }
                    }
                }
            }
            JOINT lTorso_Clavicle
            {
                OFFSET   0.001000   0.157500   0.000000
                CHANNELS 3 Xrotation Yrotation Zrotation
                JOINT lShoulder
                {
                    OFFSET   0.117647   0.000000   0.000000
                    CHANNELS 3 Xrotation Yrotation Zrotation
                    JOINT lElbow
                    {
                        OFFSET   0.245000   0.000000   0.000000
                        CHANNELS 3 Xrotation Yrotation Zrotation
                        JOINT lWrist
                        {
                            OFFSET   0.240000   0.000000   0.000000
                            CHANNELS 3 Xrotation Yrotation Zrotation
                            End Site
                            {
                                OFFSET   0.116353  -0.002500   0.000000
                            }
                        }
                    }
                }
            }
        }
    }
    JOINT rHip
    {
        OFFSET  -0.100000  -0.051395   0.000000
        CHANNELS 3 Xrotation Yrotation Zrotation
        JOINT rKnee
        {
            OFFSET   0.000000  -0.410000   0.000000
            CHANNELS 3 Xrotation Yrotation Zrotation
            JOINT rAnkle
            {
                OFFSET   0.000000  -0.390000   0.000000
                CHANNELS 3 Xrotation Yrotation Zrotation
                JOINT rToeJoint
                {
                    OFFSET   0.000000  -0.050000   0.130000
                    CHANNELS 3 Xrotation Yrotation Zrotation
                    End Site
                    {
                        OFFSET  -0.010000   0.002000   0.060000
                    }
                }
            }
        }
    }
    JOINT lHip
    {
        OFFSET   0.100000  -0.051395   0.000000
        CHANNELS 3 Xrotation Yrotation Zrotation
        JOINT lKnee
        {
            OFFSET   0.000000  -0.410000   0.000000
            CHANNELS 3 Xrotation Yrotation Zrotation
            JOINT lAnkle
            {
                OFFSET   0.000000  -0.390000   0.000000
                CHANNELS 3 Xrotation Yrotation Zrotation
                JOINT lToeJoint
                {
                    OFFSET   0.000000  -0.050000   0.130000
                    CHANNELS 3 Xrotation Yrotation Zrotation
                    End Site
                    {
                        OFFSET   0.010000   0.002000   0.060000
                    }
                }
            }
        }
    }
}
MOTION
Frames: 7
Frame Time:   0.008333
 -2.749015   0.902334   4.008351  14.175950 -22.803053   2.541828   8.252986   6.054406  -5.003397  -0.672310   0.091215  -4.346540  -2.646549   0.338647  -0.788415   2.156097  10.678916 -10.081958   3.983019  28.884589  60.795629   0.026284  58.415917  -0.049496  -2.491719   3.340091   1.571928   2.944751  -9.222368  10.786000   7.909706 -25.098454 -55.847197   0.020762 -44.502329   0.029363  -2.370634  -1.397757  -2.604731  -0.586179   1.145965   6.390158   9.488654   0.000953  -0.003393  -8.111639   4.748934   1.171170 -21.468130  -0.004638   0.001055 -36.456466   3.427338   5.569696  19.242015  -0.001884   0.002685  -0.432952  10.185588   3.731976  -0.910215  -0.000393  -0.002676
 -2.749692   0.903043   4.015105  14.792215 -23.413462   2.398003   7.828487   6.251655  -5.098579  -0.754614   0.131115  -4.204172  -2.683316   0.414666  -0.666124   2.123170  10.249151  -9.908756   4.184896  28.125553  60.605124   0.038979  57.134124  -0.062331  -2.465321   3.586477   1.903398   2.925459  -8.894412  10.804543   7.601348 -24.408778 -55.301745   0.030828 -42.846108   0.035026  -2.409092  -1.416924  -2.770377  -0.892469   1.003815   6.615477   9.646539   0.000796  -0.003832  -6.949578   5.271275   1.696113 -23.756725   0.003387   0.010425 -35.920935   3.406276   5.885221  18.282133  -0.002854   0.006229   0.174045  10.464534   3.882238  -0.671594  -0.000584  -0.002688
 -2.750521   0.903586   4.021865  15.456773 -24.044116   2.238145   7.388237   6.400024  -5.204154  -0.873447   0.137857  -4.048432  -2.713589   0.488227  -0.544045   2.096481   9.767543  -9.817866   4.430055  27.343436  60.343759   0.050092  55.893643  -0.072548  -2.442785   3.658324   2.031240   2.879879  -8.540181  10.938082   7.343813 -23.698385 -54.667130   0.039134 -41.264515   0.037522  -2.444237  -1.288738  -2.718259  -1.232637   0.845739   6.899227   9.787005   0.000641  -0.004100  -5.774026   5.784524   2.209784 -26.051092   0.009195   0.019897 -35.350828   3.371595   6.315876  17.271665  -0.003122   0.009267   0.734729  10.729027   4.022690  -0.446894  -0.000851  -0.002694
 -2.751371   0.903934   4.028697  16.148243 -24.670881   2.105785   6.947386   6.502713  -5.322040  -1.013762   0.109114  -3.910023  -2.740532   0.555733  -0.434315   2.080742   9.266063  -9.793314   4.697921  26.570794  60.049111   0.058099  54.716281  -0.079076  -2.418341   3.610333   2.033793   2.820372  -8.186599  11.142811   7.115705 -23.002387 -54.003109   0.044668 -39.774914   0.037402  -2.474704  -1.083081  -2.522778  -1.581415   0.687491   7.177004   9.912429   0.000516  -0.004198  -4.651127   6.273389   2.691640 -28.261975   0.012410   0.028012 -34.766728   3.340613   6.774542  16.323396  -0.003023   0.011461   1.256843  10.977820   4.152352  -0.242556  -0.001110  -0.002691
 -2.751921   0.905750   4.034741  16.816841 -25.011124   2.232899   6.764903   6.441392  -5.675786  -1.116510  -0.024906  -3.879112  -2.786927   0.612792  -0.340246   2.042694   8.804812  -9.743403   4.930837  25.826526  59.756341   0.059179  53.596621  -0.078470  -2.396378   3.460767   1.842047   2.690842  -7.935564  11.365601   6.845366 -22.352300 -53.296409   0.045837 -38.376334   0.034900  -2.504405  -0.849135  -2.112692  -2.008241   0.458153   7.167203  10.048584   0.000483  -0.004102  -3.424461   6.659857   3.138149 -29.479251   0.012419   0.028098 -34.650396   3.307698   6.919308  15.649880  -0.002850   0.011228   2.079985  11.224423   4.206796   0.029529  -0.001316  -0.002558
 -2.752476   0.907815   4.040912  17.417689 -25.467591   2.293787   6.583530   6.436330  -5.947168  -1.148432  -0.130285  -3.862702  -2.798167   0.670558  -0.265092   2.023779   8.354750  -9.750288   5.170624  25.123725  59.469223   0.058260  52.551843  -0.075938  -2.371706   3.288624   1.704547   2.578181  -7.682012  11.591772   6.593435 -21.748310 -52.650195   0.044514 -37.079321   0.031094  -2.535999  -0.648741  -1.721191  -2.376141   0.281784   7.205332  10.186186   0.000444  -0.004100  -2.220794   7.055364   3.559410 -29.886497   0.010597   0.024599 -34.411642   3.315257   7.153192  14.951490  -0.002722   0.011366   2.673403  11.462572   4.264712   0.218942  -0.001309  -0.002385
 -2.752894   0.910096   4.046894  18.033701 -25.846386   2.401803   6.415009   6.382243  -6.217677  -1.175944  -0.264006  -3.859669  -2.804827   0.722921  -0.195502   2.012902   7.912292  -9.786212   5.408068  24.453676  59.188967   0.055838  51.574169  -0.071941  -2.348283   3.105779   1.565573   2.468739  -7.450314  11.818147   6.350265 -21.188641 -52.041997   0.041926 -35.872553   0.026905  -2.567956  -0.475855  -1.354111  -2.796867   0.048657   7.147299  10.349316   0.000512  -0.004233  -0.828576   7.363497   3.940621 -27.085850   0.005232   0.004093 -34.138887   3.391971   7.321066  14.191687  -0.002786   0.011017   2.690461  11.760553   4.327207   0.423366  -0.001091  -0.001915
